<?xml version="1.0" encoding="UTF-8" standalone="no"?><!DOCTYPE svg PUBLIC "-//W3C//DTD SVG 1.1//EN" "http://www.w3.org/Graphics/SVG/1.1/DTD/svg11.dtd"><svg width="100%" height="100%" viewBox="0 0 123 123" version="1.1" xmlns="http://www.w3.org/2000/svg" xmlns:xlink="http://www.w3.org/1999/xlink" xml:space="preserve" xmlns:serif="http://www.serif.com/" style="fill-rule:evenodd;clip-rule:evenodd;stroke-linejoin:round;stroke-miterlimit:2;"><rect id="LogoWhiteWithoutBackground" x="0" y="0" width="122.88" height="122.88" style="fill:none;"/><g><g id="Out"><path d="M52.68,30.192l0,-9.6l-17.355,0c-1.068,0 -2.008,0.868 -2.551,2.18c-0.312,0.754 -0.494,1.654 -0.494,2.62c0,2.649 1.364,4.8 3.045,4.8l17.355,0Z" style="fill:#fff;"/><path d="M52.68,102.288l0,-9.6l-17.355,0c-1.681,0 -3.045,2.151 -3.045,4.8c0,2.649 1.364,4.8 3.045,4.8l17.355,0Z" style="fill:#fff;"/><path d="M41.88,41.04c0,-1.325 -1.075,-2.4 -2.4,-2.4l-4.8,0c-1.325,0 -2.4,1.075 -2.4,2.4l0,40.8c0,1.325 1.075,2.4 2.4,2.4l4.8,0c1.325,0 2.4,-1.075 2.4,-2.4l0,-40.8Z" style="fill:#fff;"/><path d="M57.36,30.192l0,-9.6c22.599,0 40.92,18.288 40.92,40.848c0,22.56 -18.321,40.848 -40.92,40.848l0,-9.6c17.37,-0.031 31.44,-14.009 31.44,-31.248c0,-17.239 -14.07,-31.217 -31.44,-31.248Z" style="fill:#fff;"/></g></g></svg>